<?xml version="1.0" encoding="UTF-8" standalone="no"?>
<!-- Created with Inkscape (http://www.inkscape.org/) -->

<svg
   xmlns:dc="http://purl.org/dc/elements/1.1/"
   xmlns:cc="http://creativecommons.org/ns#"
   xmlns:rdf="http://www.w3.org/1999/02/22-rdf-syntax-ns#"
   xmlns:svg="http://www.w3.org/2000/svg"
   xmlns="http://www.w3.org/2000/svg"
   xmlns:sodipodi="http://sodipodi.sourceforge.net/DTD/sodipodi-0.dtd"
   xmlns:inkscape="http://www.inkscape.org/namespaces/inkscape"
   width="32px"
   height="32px"
   id="svg2985"
   version="1.1"
   inkscape:version="0.48.2 r9819"
   sodipodi:docname="New document 2">
  <defs
     id="defs2987" />
  <sodipodi:namedview
     id="base"
     pagecolor="#ffffff"
     bordercolor="#666666"
     borderopacity="1.0"
     inkscape:pageopacity="0.0"
     inkscape:pageshadow="2"
     inkscape:zoom="11.197802"
     inkscape:cx="2.0686946"
     inkscape:cy="16"
     inkscape:current-layer="layer1"
     showgrid="true"
     inkscape:grid-bbox="true"
     inkscape:document-units="px"
     inkscape:window-width="1280"
     inkscape:window-height="738"
     inkscape:window-x="-8"
     inkscape:window-y="-8"
     inkscape:window-maximized="1" />
  <metadata
     id="metadata2990">
    <rdf:RDF>
      <cc:Work
         rdf:about="">
        <dc:format>image/svg+xml</dc:format>
        <dc:type
           rdf:resource="http://purl.org/dc/dcmitype/StillImage" />
        <dc:title></dc:title>
      </cc:Work>
    </rdf:RDF>
  </metadata>
  <g
     id="layer1"
     inkscape:label="Layer 1"
     inkscape:groupmode="layer">
    <path
       transform="matrix(1.1281292,0,0,0.90078716,8.3743843,8.020233)"
       style="fill:#803300;fill-rule:evenodd;stroke:#000000;stroke-width:1px;stroke-linecap:butt;stroke-linejoin:miter;stroke-opacity:1"
       d="m 15.774264,20.776519 -4.451559,0.914844 -3.980581,0.919448 -3.4365988,-1.941847 -4.39407926,-0.0097 -3.47937784,-1.093694 c -1.9190398,-0.135906 -2.5337489,-1.779677 -1.7087113,-5.087859 l -0.9194474,-3.980581 0.3556208,-4.0698825 0.4084713,-4.0582127 4.1048087,-2.09218442 3.184991,-2.69934838 4.2180626,0.5676393 5.4947712,-1.8254396 2.177586,3.28124324 3.083575,1.58939006 3.05444,3.0059372 -0.03048,4.4762768 -2.413792,3.673327 0.462293,4.157351 z"
       id="path2993"
       inkscape:connector-curvature="0"
       sodipodi:nodetypes="ccccccccccccccccccccc" />
    <path
       sodipodi:type="arc"
       style="fill:none;stroke:#000000;stroke-opacity:1"
       id="path3005"
       sodipodi:cx="10.671737"
       sodipodi:cy="13.916094"
       sodipodi:rx="2.2772326"
       sodipodi:ry="2.1879294"
       d="m 12.948969,13.916094 a 2.2772326,2.1879294 0 1 1 -4.5544649,0 2.2772326,2.1879294 0 1 1 4.5544649,0 z"
       transform="matrix(0.54323233,0,0,0.44295609,2.686575,6.1890686)" />
    <path
       sodipodi:type="arc"
       style="fill:none;stroke:#000000;stroke-opacity:1"
       id="path3005-1"
       sodipodi:cx="10.671737"
       sodipodi:cy="13.916094"
       sodipodi:rx="2.2772326"
       sodipodi:ry="2.1879294"
       d="m 12.948969,13.916094 a 2.2772326,2.1879294 0 1 1 -4.5544649,0 2.2772326,2.1879294 0 1 1 4.5544649,0 z"
       transform="matrix(0.54323233,0,0,0.44295609,11.795506,4.1350942)" />
    <path
       sodipodi:type="arc"
       style="fill:none;stroke:#000000;stroke-opacity:1"
       id="path3005-7"
       sodipodi:cx="10.671737"
       sodipodi:cy="13.916094"
       sodipodi:rx="2.2772326"
       sodipodi:ry="2.1879294"
       d="m 12.948969,13.916094 a 2.2772326,2.1879294 0 1 1 -4.5544649,0 2.2772326,2.1879294 0 1 1 4.5544649,0 z"
       transform="matrix(0.54323233,0,0,0.44295609,12.777842,10.654231)" />
    <path
       sodipodi:type="arc"
       style="fill:none;stroke:#000000;stroke-opacity:1"
       id="path3005-4"
       sodipodi:cx="10.671737"
       sodipodi:cy="13.916094"
       sodipodi:rx="2.2772326"
       sodipodi:ry="2.1879294"
       d="m 12.948969,13.916094 a 2.2772326,2.1879294 0 1 1 -4.5544649,0 2.2772326,2.1879294 0 1 1 4.5544649,0 z"
       transform="matrix(0.54323233,0,0,0.44295609,2.5972722,13.779844)" />
    <path
       sodipodi:type="arc"
       style="fill:none;stroke:#000000;stroke-opacity:1"
       id="path3005-0"
       sodipodi:cx="10.671737"
       sodipodi:cy="13.916094"
       sodipodi:rx="2.2772326"
       sodipodi:ry="2.1879294"
       d="m 12.948969,13.916094 a 2.2772326,2.1879294 0 1 1 -4.5544649,0 2.2772326,2.1879294 0 1 1 4.5544649,0 z"
       transform="matrix(0.54323233,0,0,0.44295609,13.760177,17.977096)" />
    <path
       sodipodi:type="arc"
       style="fill:none;stroke:#000000;stroke-opacity:1"
       id="path3005-9"
       sodipodi:cx="10.671737"
       sodipodi:cy="13.916094"
       sodipodi:rx="2.2772326"
       sodipodi:ry="2.1879294"
       d="m 12.948969,13.916094 a 2.2772326,2.1879294 0 1 1 -4.5544649,0 2.2772326,2.1879294 0 1 1 4.5544649,0 z"
       transform="matrix(0.75971963,0,0,0.74991226,15.736437,4.2393221)" />
    <path
       sodipodi:type="arc"
       style="fill:none;stroke:#000000;stroke-opacity:1"
       id="path3005-48"
       sodipodi:cx="10.671737"
       sodipodi:cy="13.916094"
       sodipodi:rx="2.2772326"
       sodipodi:ry="2.1879294"
       d="m 12.948969,13.916094 a 2.2772326,2.1879294 0 1 1 -4.5544649,0 2.2772326,2.1879294 0 1 1 4.5544649,0 z"
       transform="matrix(0.28325681,0,0,0.21318564,1.6209264,12.244279)" />
    <path
       sodipodi:type="arc"
       style="fill:none;stroke:#000000;stroke-opacity:1"
       id="path3005-8"
       sodipodi:cx="10.671737"
       sodipodi:cy="13.916094"
       sodipodi:rx="2.2772326"
       sodipodi:ry="2.1879294"
       d="m 12.948969,13.916094 a 2.2772326,2.1879294 0 1 1 -4.5544649,0 2.2772326,2.1879294 0 1 1 4.5544649,0 z"
       transform="matrix(0.29151913,0,0,0.30341786,9.3467866,10.586735)" />
    <path
       sodipodi:type="arc"
       style="fill:none;stroke:#000000;stroke-opacity:1"
       id="path3005-2"
       sodipodi:cx="10.671737"
       sodipodi:cy="13.916094"
       sodipodi:rx="2.2772326"
       sodipodi:ry="2.1879294"
       d="m 12.948969,13.916094 a 2.2772326,2.1879294 0 1 1 -4.5544649,0 2.2772326,2.1879294 0 1 1 4.5544649,0 z"
       transform="matrix(0.30593412,0,0,0.17556407,8.5678309,22.323271)" />
  </g>
</svg>
